<svg xmlns="http://www.w3.org/2000/svg" fill="none" viewBox="0 0 128 128">
  <mask id="a" width="120" height="71" x="4" y="29" maskUnits="userSpaceOnUse"
    style="mask-type:luminance">
    <path fill="#fff" d="M4.65 29.1h118.79v70.63H4.65V29.09Z" />
  </mask>
  <g mask="url(#a)">
    <path fill="#fff" fill-rule="evenodd"
      d="M64.04 48c13.86 0 25.11 10.98 25.11 24.52 0 13.53-11.25 24.52-25.1 24.52-13.87 0-25.12-10.99-25.12-24.52C38.93 58.98 50.18 48 64.04 48Zm0-3.15c15.64 0 28.34 12.4 28.34 27.67 0 15.27-12.68 27.67-28.34 27.67-15.65 0-28.34-12.38-28.34-27.67 0-15.27 12.7-27.67 28.34-27.67Zm59.22 13.14c-1.1-7.44-7.69-13.21-15.6-13.21h-23.1c.7.98 1.34 2 1.89 3.06h21.24c6.05 0 11.15 4.21 12.37 9.8 1.09.07 2.16.18 3.2.35ZM20.4 47.84h21.25a23.21 23.21 0 0 1 1.87-3.06H20.4c-8.3 0-15.17 6.35-15.71 14.32h3.13c.57-6.28 6-11.26 12.58-11.26Zm1-8.53h8.56v2.41c.74 0 1.46.07 2.16.14v-4.64H19.27v4.52h2.16v-2.43h-.02Zm65.7 2.41-1.2-2.9c-.63-1.45-2.15-5.7-3.6-6.48a1.62 1.62 0 0 0-.73-.17H46.5c-.27 0-.5.05-.74.17-1.44.78-2.97 5.03-3.58 6.49l-1.22 2.91h-3.39l1.69-4.07c1.83-4.36 3.25-8.58 7.22-8.58h35.07c3.97 0 5.4 4.2 7.22 8.58l1.71 4.07h-3.37v-.02Zm8.29 9.15v5.8h10.65v-5.8H95.4Zm1.87 1.84h6.93v2.13h-6.93V52.7Z"
      clip-rule="evenodd" />
  </g>
  <mask id="b" width="33" height="35" x="48" y="56" maskUnits="userSpaceOnUse"
    style="mask-type:luminance">
    <path fill="#fff" d="M48 56.85h32.26V90.6H48V56.85Z" />
  </mask>
  <g mask="url(#b)">
    <path fill="#fff"
      d="M79.53 79.58a.7.7 0 0 0-.91.35 15.93 15.93 0 0 1-14.6 9.34 15.94 15.94 0 0 1-14.6-9.34.7.7 0 0 0-.9-.35.67.67 0 0 0-.36.89 17.33 17.33 0 0 0 15.86 10.15c6.9 0 13.12-3.98 15.87-10.15a.68.68 0 0 0-.36-.89Zm-27.76-5.84c0 6.6 5.49 11.96 12.25 11.96 6.78 0 12.27-5.36 12.27-11.96 0-6.61-5.5-11.97-12.27-11.97-2.95 0-5.66 1.02-7.77 2.72a7.56 7.56 0 0 1 3.57-.88 7.39 7.39 0 0 1 7.47 7.3c0 4.02-3.34 7.3-7.47 7.3a7.39 7.39 0 0 1-7.41-8.31 11.7 11.7 0 0 0-.64 3.84Zm-3.25-5.85a.7.7 0 0 0 .9-.35 15.94 15.94 0 0 1 14.6-9.34c6.34 0 12.07 3.67 14.6 9.34.15.34.56.5.91.35a.67.67 0 0 0 .36-.89 17.32 17.32 0 0 0-15.87-10.15A17.32 17.32 0 0 0 48.16 67c-.15.35 0 .74.36.89Z" />
  </g>
</svg>